HIERARCHY
ROOT Hips
{
	OFFSET 77.262398 -16.949316 94.282700
	CHANNELS 6 Xposition Yposition Zposition Xrotation Yrotation Zrotation
	JOINT spine
	{
		OFFSET 0.000000 -0.448574 7.800591
		CHANNELS 3 Xrotation Yrotation Zrotation
		JOINT spine1
		{
			OFFSET 0.000000 -0.000002 10.136398
			CHANNELS 3 Xrotation Yrotation Zrotation
			JOINT spine2
			{
				OFFSET 0.000000 0.000000 9.712509
				CHANNELS 3 Xrotation Yrotation Zrotation
				JOINT Neck
				{
					OFFSET 0.000000 -1.188875 24.936104
					CHANNELS 3 Xrotation Yrotation Zrotation
					JOINT Head
					{
						OFFSET 0.000000 0.000000 7.533844
						CHANNELS 3 Xrotation Yrotation Zrotation
						End Site
						{
							OFFSET 0.000000 6.014017 18.236099
						}
					}
				}
				JOINT RightShoulder
				{
					OFFSET -4.089653 0.569454 10.488792
					CHANNELS 3 Xrotation Yrotation Zrotation
					JOINT RightArm
					{
						OFFSET 0.000000 -0.000002 13.757004
						CHANNELS 3 Xrotation Yrotation Zrotation
						JOINT RightArmRoll
						{
							OFFSET 0.000000 -0.000002 6.944778
							CHANNELS 3 Xrotation Yrotation Zrotation
							JOINT RightForeArm
							{
								OFFSET 0.000000 -0.000004 20.227692
								CHANNELS 3 Xrotation Yrotation Zrotation
								JOINT RightForeArmRoll
								{
									OFFSET 0.000000 0.000000 7.793137
									CHANNELS 3 Xrotation Yrotation Zrotation
									JOINT RightHand
									{
										OFFSET 0.000000 -0.000004 15.639099
										CHANNELS 3 Xrotation Yrotation Zrotation
										End Site
										{
											OFFSET 0.000000 0.000000 0.100006
										}
									}
								}
							}
						}
					}
				}
				JOINT LeftShoulder
				{
					OFFSET 4.089653 0.569454 10.488792
					CHANNELS 3 Xrotation Yrotation Zrotation
					JOINT LeftArm
					{
						OFFSET 0.000000 -0.000002 13.757004
						CHANNELS 3 Xrotation Yrotation Zrotation
						JOINT LeftArmRoll
						{
							OFFSET 0.000000 -0.000002 6.944778
							CHANNELS 3 Xrotation Yrotation Zrotation
							JOINT LeftForeArm
							{
								OFFSET 0.000000 -0.000004 20.227692
								CHANNELS 3 Xrotation Yrotation Zrotation
								JOINT LeftForeArmRoll
								{
									OFFSET 0.000000 0.000000 7.793121
									CHANNELS 3 Xrotation Yrotation Zrotation
									JOINT LeftHand
									{
										OFFSET 0.000000 -0.000004 15.639099
										CHANNELS 3 Xrotation Yrotation Zrotation
										End Site
										{
											OFFSET 0.000000 0.000000 0.100006
										}
									}
								}
							}
						}
					}
				}
			}
		}
	}
	JOINT RightUpLeg
	{
		OFFSET -6.914146 1.063580 -1.267883
		CHANNELS 3 Xrotation Yrotation Zrotation
		JOINT RightUpLegRoll
		{
			OFFSET 0.000000 -0.000003 18.337799
			CHANNELS 3 Xrotation Yrotation Zrotation
			JOINT RightLeg
			{
				OFFSET 0.000000 0.000004 -22.708496
				CHANNELS 3 Xrotation Yrotation Zrotation
				JOINT RightLegRoll
				{
					OFFSET 0.000000 -0.000004 22.782799
					CHANNELS 3 Xrotation Yrotation Zrotation
					JOINT RightFoot
					{
						OFFSET 0.000000 -0.000003 18.962898
						CHANNELS 3 Xrotation Yrotation Zrotation
						JOINT RightToeBase
						{
							OFFSET 0.000000 -0.000003 15.852005
							CHANNELS 3 Xrotation Yrotation Zrotation
							End Site
							{
								OFFSET 0.006721 0.884892 7.677017
							}
						}
					}
				}
			}
		}
	}
	JOINT LeftUpLeg
	{
		OFFSET 6.914146 1.063580 -1.267883
		CHANNELS 3 Xrotation Yrotation Zrotation
		JOINT LeftUpLegRoll
		{
			OFFSET 0.000000 -0.000003 18.337898
			CHANNELS 3 Xrotation Yrotation Zrotation
			JOINT LeftLeg
			{
				OFFSET 0.000000 -0.000004 22.708397
				CHANNELS 3 Xrotation Yrotation Zrotation
				JOINT LeftLegRoll
				{
					OFFSET 0.000000 -0.000004 22.993393
					CHANNELS 3 Xrotation Yrotation Zrotation
					JOINT LeftFoot
					{
						OFFSET 0.000000 -0.000003 18.752197
						CHANNELS 3 Xrotation Yrotation Zrotation
						JOINT LeftToeBase
						{
							OFFSET 0.000000 -0.000003 15.852005
							CHANNELS 3 Xrotation Yrotation Zrotation
							End Site
							{
								OFFSET -0.030113 0.884892 7.677017
							}
						}
					}
				}
			}
		}
	}
}
MOTION
Frames: 7
Frame Time: 0.041667
47.614792 -10.056514 94.151199 -4.264106 0.818767 -4.907624 1.105341 0.030615 0.169696 6.195274 0.071279 0.345809 7.840348 0.075447 0.344954 5.237602 13.149198 -0.478021 -2.766452 -28.106228 0.224213 -5.741787 -35.023441 -4.330575 143.012413 2.919309 78.525838 -0.000001 -0.000006 0.000003 35.213351 -39.523832 15.580000 -0.000039 0.000017 -3.007431 -5.000224 -8.000688 -0.000346 -8.837998 59.799153 10.490932 -56.044257 112.572842 53.182582 -0.000000 -0.000004 0.000001 14.573920 9.237879 -0.021496 -0.000009 -0.000009 3.004091 -5.000197 7.998864 -0.000155 -3.983476 -179.512193 -1.052059 -179.999991 0.000005 -1.044003 167.582981 -1.482512 -0.756370 0.000003 -0.000003 0.274639 70.354493 6.693249 2.566643 25.456962 -7.352460 0.000009 -2.246979 178.017529 5.367351 -0.000004 -0.000004 -1.269961 -13.066910 4.798771 0.807439 -0.000005 -0.000000 -0.250834 72.645824 -7.404509 -0.382058 25.456948 7.355435 0.000005 
47.623596 -10.056913 94.151108 -4.259959 0.815526 -4.884216 1.105568 0.030619 0.169641 6.197036 0.070930 0.345184 7.842117 0.075082 0.344329 5.196843 13.149525 -0.489321 -2.700390 -28.110839 0.224950 -5.738925 -35.005508 -4.324497 143.027235 2.930280 78.604904 -0.000002 -0.000010 0.000001 35.176495 -39.516172 15.553860 -0.000039 0.000019 -3.007431 -5.000223 -8.000687 -0.000347 -8.842627 59.805580 10.496798 -56.222484 112.495886 53.416355 -0.000000 -0.000003 0.000001 14.675624 9.297102 -0.034404 -0.000009 -0.000009 3.004091 -5.000199 7.998863 -0.000156 -3.978779 -179.509188 -1.050968 -179.999991 0.000005 -1.044003 167.594483 -1.481590 -0.755855 0.000003 -0.000003 0.273691 70.341851 6.692808 2.568628 25.456960 -7.352460 0.000008 -2.258748 178.018526 5.367669 -0.000005 -0.000004 -1.269920 -13.073451 4.799483 0.807998 -0.000006 -0.000000 -0.250821 72.648385 -7.404644 -0.381810 25.456948 7.355434 0.000005 
47.627594 -10.057117 94.151100 -4.255576 0.811984 -4.861172 1.105720 0.030624 0.169588 6.198695 0.070564 0.344545 7.843778 0.074699 0.343690 5.154495 13.151072 -0.500772 -2.631612 -28.115970 0.225952 -5.735806 -34.985889 -4.317870 143.042589 2.942871 78.687119 0.000002 -0.000006 -0.000000 35.134770 -39.509878 15.526275 -0.000037 0.000018 -3.007430 -5.000225 -8.000686 -0.000347 -8.847222 59.812718 10.502675 -56.403105 112.419743 53.651361 0.000001 -0.000005 0.000001 14.775227 9.355816 -0.047450 -0.000007 -0.000009 3.004090 -5.000200 7.998863 -0.000155 -3.974271 -179.506182 -1.049688 -179.999991 0.000005 -1.044003 167.605998 -1.480682 -0.756340 0.000002 -0.000003 0.272769 70.329707 6.692272 2.570867 25.456964 -7.352460 0.000008 -2.270091 178.019551 5.368261 -0.000005 -0.000004 -1.269859 -13.078682 4.800181 0.808494 -0.000005 -0.000001 -0.250798 72.650646 -7.404806 -0.381484 25.456947 7.355436 0.000005 
47.626595 -10.051820 94.152489 -4.251021 0.808229 -4.838376 1.105809 0.030631 0.169536 6.200275 0.070185 0.343896 7.845358 0.074302 0.343041 5.111045 13.153333 -0.512312 -2.560947 -28.121397 0.227144 -5.732518 -34.964981 -4.310857 143.058258 2.957078 78.770516 -0.000002 -0.000005 0.000001 35.089537 -39.504588 15.497592 -0.000037 0.000019 -3.007430 -5.000225 -8.000688 -0.000347 -8.851806 59.820245 10.508558 -56.583756 112.344782 53.885388 0.000000 0.000001 0.000001 14.873348 9.414176 -0.060660 -0.000009 -0.000008 3.004090 -5.000204 7.998864 -0.000156 -3.969881 -179.502194 -1.048336 -179.999991 0.000005 -1.044003 167.617705 -1.479774 -0.755824 0.000002 -0.000003 0.271865 70.317870 6.691709 2.573080 25.456962 -7.352460 0.000008 -2.281125 178.021559 5.369004 -0.000005 -0.000004 -1.269790 -13.083110 4.800865 0.808955 -0.000006 -0.000001 -0.250772 72.652681 -7.404985 -0.380977 25.456947 7.355435 0.000006 
47.628395 -10.065014 94.151794 -4.246377 0.804358 -4.815740 1.105879 0.030639 0.169484 6.201814 0.069799 0.343242 7.846898 0.073899 0.342387 5.066952 13.156095 -0.523910 -2.489188 -28.127011 0.228453 -5.729143 -34.943378 -4.303630 143.074145 2.971310 78.854903 0.000001 -0.000007 0.000002 35.042241 -39.499872 15.468268 -0.000037 0.000019 -3.007430 -5.000226 -8.000687 -0.000347 -8.856377 59.828086 10.514456 -56.768339 112.269841 54.123017 -0.000000 -0.000000 0.000001 14.970798 9.472313 -0.074055 -0.000008 -0.000009 3.004091 -5.000197 7.998863 -0.000155 -3.965562 -179.498205 -1.046915 -179.999991 0.000005 -1.044004 167.629317 -1.479840 -0.756534 0.000003 -0.000003 0.270971 70.306136 6.691143 2.575389 25.456962 -7.352460 0.000009 -2.291987 178.023580 5.369858 -0.000005 -0.000004 -1.269710 -13.087140 4.801527 0.809399 -0.000005 -0.000000 -0.250740 72.654512 -7.405178 -0.380586 25.456950 7.355435 0.000005 
47.629997 -10.060513 94.145988 -4.241707 0.800459 -4.793135 1.105932 0.030647 0.169433 6.203344 0.069412 0.342586 7.848427 0.073493 0.341730 5.022692 13.159058 -0.535520 -2.417148 -28.132695 0.229813 -5.725733 -34.921576 -4.296349 143.090182 2.986337 78.938859 0.000003 -0.000006 0.000000 34.994474 -39.495289 15.438840 -0.000039 0.000018 -3.007430 -5.000227 -8.000688 -0.000346 -8.860925 59.835927 10.520326 -56.952043 112.195604 54.359454 0.000000 -0.000001 0.000001 15.068099 9.530372 -0.087653 -0.000009 -0.000009 3.004090 -5.000200 7.998864 -0.000155 -3.961254 -179.494216 -1.045473 -179.999991 0.000005 -1.044003 167.641024 -1.478932 -0.756019 0.000003 -0.000003 0.270080 70.294517 6.690540 2.577684 25.456960 -7.352459 0.000009 -2.302810 178.025602 5.370742 -0.000004 -0.000004 -1.269630 -13.090967 4.802194 0.809831 -0.000005 -0.000000 -0.250710 72.656342 -7.405403 -0.380098 25.456947 7.355435 0.000006 
47.630699 -10.061417 94.145798 -4.237091 0.796625 -4.770452 1.106012 0.030654 0.169382 6.204894 0.069028 0.341932 7.849967 0.073091 0.341078 4.978764 13.161700 -0.547091 -2.345648 -28.138431 0.231125 -5.722380 -34.900177 -4.289171 143.106260 3.000591 79.022215 0.000002 -0.000008 0.000002 34.947783 -39.490313 15.409740 -0.000038 0.000018 -3.007431 -5.000230 -8.000687 -0.000347 -8.865516 59.843665 10.526234 -57.137070 112.121606 54.597373 -0.000000 -0.000001 0.000001 15.165757 9.588524 -0.101450 -0.000009 -0.000008 3.004089 -5.000201 7.998863 -0.000156 -3.956916 -179.490213 -1.044062 -179.999991 0.000005 -1.044003 167.652731 -1.478024 -0.756502 0.000003 -0.000003 0.269183 70.282776 6.689964 2.579990 25.456962 -7.352460 0.000009 -2.313725 178.026599 5.371607 -0.000005 -0.000005 -1.269551 -13.094993 4.802865 0.810271 -0.000005 -0.000001 -0.250680 72.658173 -7.405596 -0.379708 25.456947 7.355435 0.000006 
